<svg width="101" height="101" viewBox="0 0 101 101" fill="none" xmlns="http://www.w3.org/2000/svg">
    <path
        d="M95.6999 0H5.30011C2.37294 0 0 2.34057 0 5.22781V95.7722C0 98.6594 2.37294 101 5.30011 101H95.6999C98.6271 101 101 98.6594 101 95.7722V5.22781C101 2.34057 98.6271 0 95.6999 0Z"
        fill="#1477F9" />
    <path
        d="M67.8505 82.611V76.7753C67.8505 72.4593 71.3515 68.9539 75.6846 68.9539H81.7936C82.7475 68.9539 83.5187 68.1839 83.5187 67.2315V33.038V18.9554C83.5187 17.8713 82.6358 17 81.5602 17H68.4188C67.3533 17 66.4806 17.8612 66.4806 18.9351V36.5941V60.4232C66.4806 64.7392 62.9796 68.2447 58.6465 68.2447H50.4065H50.2543H50.1021H41.8621C37.5391 68.2447 34.0381 64.7493 34.0381 60.4333V36.6043V18.9452C34.0381 17.8814 33.1756 17.0101 32.0999 17.0101H18.9585C17.8727 17.0101 17 17.8916 17 18.9655V33.0481V67.2416C17 68.194 17.7712 68.964 18.7251 68.964H24.8341C29.157 68.964 32.6682 72.4593 32.6682 76.7854V82.6211C32.6682 83.5735 33.4394 84.3435 34.3933 84.3435H50.2746H66.1558C67.1097 84.3435 67.881 83.5735 67.881 82.6211L67.8505 82.611Z"
        fill="white" />
</svg>